<svg width="20" height="20" viewBox="0 0 20 20" fill="none" xmlns="http://www.w3.org/2000/svg">
<g clip-path="url(#clip0_1_1160)">
<path d="M5.1415 15C5.31367 14.5121 5.63295 14.0895 6.05534 13.7907C6.47772 13.4918 6.98241 13.3313 7.49984 13.3313C8.01727 13.3313 8.52195 13.4918 8.94434 13.7907C9.36672 14.0895 9.686 14.5121 9.85817 15H18.3332V16.6667H9.85817C9.686 17.1546 9.36672 17.5771 8.94434 17.876C8.52195 18.1749 8.01727 18.3354 7.49984 18.3354C6.98241 18.3354 6.47772 18.1749 6.05534 17.876C5.63295 17.5771 5.31367 17.1546 5.1415 16.6667H1.6665V15H5.1415ZM10.1415 9.16667C10.3137 8.67873 10.633 8.2562 11.0553 7.95733C11.4777 7.65846 11.9824 7.49796 12.4998 7.49796C13.0173 7.49796 13.522 7.65846 13.9443 7.95733C14.3667 8.2562 14.686 8.67873 14.8582 9.16667H18.3332V10.8333H14.8582C14.686 11.3213 14.3667 11.7438 13.9443 12.0427C13.522 12.3415 13.0173 12.502 12.4998 12.502C11.9824 12.502 11.4777 12.3415 11.0553 12.0427C10.633 11.7438 10.3137 11.3213 10.1415 10.8333H1.6665V9.16667H10.1415ZM5.1415 3.33334C5.31367 2.84539 5.63295 2.42286 6.05534 2.12399C6.47772 1.82512 6.98241 1.66463 7.49984 1.66463C8.01727 1.66463 8.52195 1.82512 8.94434 2.12399C9.36672 2.42286 9.686 2.84539 9.85817 3.33334H18.3332V5H9.85817C9.686 5.48795 9.36672 5.91047 8.94434 6.20934C8.52195 6.50821 8.01727 6.66871 7.49984 6.66871C6.98241 6.66871 6.47772 6.50821 6.05534 6.20934C5.63295 5.91047 5.31367 5.48795 5.1415 5H1.6665V3.33334H5.1415ZM7.49984 5C7.72085 5 7.93281 4.9122 8.08909 4.75592C8.24537 4.59964 8.33317 4.38768 8.33317 4.16667C8.33317 3.94566 8.24537 3.73369 8.08909 3.57741C7.93281 3.42113 7.72085 3.33334 7.49984 3.33334C7.27882 3.33334 7.06686 3.42113 6.91058 3.57741C6.7543 3.73369 6.6665 3.94566 6.6665 4.16667C6.6665 4.38768 6.7543 4.59964 6.91058 4.75592C7.06686 4.9122 7.27882 5 7.49984 5ZM12.4998 10.8333C12.7209 10.8333 12.9328 10.7455 13.0891 10.5893C13.2454 10.433 13.3332 10.221 13.3332 10C13.3332 9.77899 13.2454 9.56703 13.0891 9.41075C12.9328 9.25447 12.7209 9.16667 12.4998 9.16667C12.2788 9.16667 12.0669 9.25447 11.9106 9.41075C11.7543 9.56703 11.6665 9.77899 11.6665 10C11.6665 10.221 11.7543 10.433 11.9106 10.5893C12.0669 10.7455 12.2788 10.8333 12.4998 10.8333ZM7.49984 16.6667C7.72085 16.6667 7.93281 16.5789 8.08909 16.4226C8.24537 16.2663 8.33317 16.0543 8.33317 15.8333C8.33317 15.6123 8.24537 15.4004 8.08909 15.2441C7.93281 15.0878 7.72085 15 7.49984 15C7.27882 15 7.06686 15.0878 6.91058 15.2441C6.7543 15.4004 6.6665 15.6123 6.6665 15.8333C6.6665 16.0543 6.7543 16.2663 6.91058 16.4226C7.06686 16.5789 7.27882 16.6667 7.49984 16.6667Z" fill="black"/>
</g>
<defs>
<clipPath id="clip0_1_1160">
<rect width="20" height="20" fill="white"/>
</clipPath>
</defs>
</svg>
